<svg xmlns="http://www.w3.org/2000/svg" viewBox="0 0 512 512" role="img" aria-label="SSClashR">
  <defs>
    <linearGradient id="shield" x1="96" y1="80" x2="416" y2="448" gradientUnits="userSpaceOnUse">
      <stop offset="0" stop-color="#12d8ff"/>
      <stop offset="0.52" stop-color="#00a7d8"/>
      <stop offset="1" stop-color="#123d8c"/>
    </linearGradient>
    <linearGradient id="accent" x1="126" y1="142" x2="390" y2="365" gradientUnits="userSpaceOnUse">
      <stop offset="0" stop-color="#ff9b21"/>
      <stop offset="1" stop-color="#ff5a00"/>
    </linearGradient>
  </defs>
  <rect width="512" height="512" rx="112" fill="#16002b"/>
  <path fill="url(#shield)" d="M256 54 93 126v110c0 105 63 181 163 222 100-41 163-117 163-222V126L256 54Z"/>
  <path fill="#16002b" d="M154 160h188v62H222c-18 0-27 6-27 19 0 14 11 19 32 19h57c77 0 116 31 116 91 0 65-49 101-137 101H149v-62h119c31 0 47-10 47-31 0-18-14-28-43-28h-54c-61 0-99-31-99-83 0-55 43-88 35-88Z" opacity=".92"/>
  <path fill="url(#accent)" d="M211 159h97c70 0 111 36 111 97 0 42-22 74-60 89l70 106h-85l-59-94h-2v94h-72V159Zm72 60v82h22c27 0 41-15 41-42 0-26-14-40-41-40h-22Z"/>
</svg>
